<?xml version="1.0" encoding="UTF-8"?>
<svg xmlns="http://www.w3.org/2000/svg" xmlns:xlink="http://www.w3.org/1999/xlink" viewBox="333 211 552 86">
<path fill-rule="nonzero" fill="rgb(100%, 100%, 100%)" fill-opacity="1" d="M 624.785156 291.203125 C 615.304688 291.203125 606.386719 287.511719 599.683594 280.804688 C 592.976562 274.101562 589.28125 265.183594 589.28125 255.699219 L 589.28125 221.398438 L 603.367188 221.398438 L 603.367188 255.699219 C 603.367188 267.511719 612.976562 277.121094 624.785156 277.121094 C 636.597656 277.121094 646.207031 267.511719 646.207031 255.699219 L 646.207031 221.398438 L 660.289062 221.398438 L 660.289062 255.699219 C 660.289062 265.183594 656.597656 274.101562 649.890625 280.804688 C 643.1875 287.511719 634.269531 291.203125 624.785156 291.203125 "/>
<path fill-rule="nonzero" fill="rgb(100%, 100%, 100%)" fill-opacity="1" d="M 580.71875 287.664062 L 566.636719 287.664062 L 566.636719 253.363281 C 566.636719 241.550781 557.027344 231.941406 545.214844 231.941406 C 533.402344 231.941406 523.792969 241.550781 523.792969 253.363281 L 523.792969 287.367188 L 509.710938 287.367188 L 509.710938 253.363281 C 509.710938 243.878906 513.40625 234.964844 520.109375 228.257812 C 526.816406 221.554688 535.730469 217.859375 545.214844 217.859375 C 554.699219 217.859375 563.613281 221.554688 570.320312 228.257812 C 577.023438 234.964844 580.71875 243.878906 580.71875 253.363281 Z M 580.71875 287.664062 "/>
<path fill-rule="nonzero" fill="rgb(100%, 100%, 100%)" fill-opacity="1" d="M 796.730469 287.664062 L 796.730469 253.363281 C 796.730469 243.878906 793.039062 234.964844 786.335938 228.257812 C 779.628906 221.554688 770.710938 217.859375 761.230469 217.859375 C 751.746094 217.859375 742.828125 221.554688 736.125 228.257812 C 734.894531 229.488281 733.800781 230.816406 732.777344 232.183594 C 731.753906 230.816406 730.664062 229.488281 729.433594 228.257812 C 722.726562 221.554688 713.8125 217.859375 704.328125 217.859375 C 694.84375 217.859375 685.929688 221.554688 679.222656 228.257812 C 672.515625 234.964844 668.824219 243.878906 668.824219 253.363281 L 668.824219 287.664062 L 682.90625 287.664062 L 682.90625 253.363281 C 682.90625 241.550781 692.515625 231.941406 704.328125 231.941406 C 716.058594 231.941406 725.605469 241.421875 725.738281 253.121094 C 725.734375 253.203125 725.726562 253.28125 725.726562 253.363281 L 725.726562 287.664062 L 739.832031 287.664062 L 739.832031 253.363281 C 739.832031 253.28125 739.820312 253.203125 739.820312 253.121094 C 739.953125 241.421875 749.5 231.941406 761.230469 231.941406 C 773.039062 231.941406 782.648438 241.550781 782.648438 253.363281 L 782.648438 287.664062 Z M 796.730469 287.664062 "/>
<path fill-rule="nonzero" fill="rgb(100%, 100%, 100%)" fill-opacity="1" d="M 466.574219 252.761719 C 466.421875 243.503906 462.769531 234.820312 456.207031 228.257812 C 449.5 221.550781 440.582031 217.859375 431.101562 217.859375 C 421.617188 217.859375 412.703125 221.550781 405.996094 228.257812 C 404.765625 229.488281 403.671875 230.816406 402.652344 232.183594 C 401.625 230.816406 400.535156 229.488281 399.304688 228.257812 C 392.597656 221.550781 383.683594 217.859375 374.199219 217.859375 C 364.714844 217.859375 355.800781 221.550781 349.09375 228.257812 C 342.390625 234.964844 338.695312 243.878906 338.695312 253.363281 L 338.695312 287.664062 L 352.777344 287.664062 L 352.777344 253.363281 C 352.777344 241.550781 362.386719 231.941406 374.199219 231.941406 C 385.929688 231.941406 395.476562 241.421875 395.609375 253.117188 C 395.609375 253.199219 395.597656 253.28125 395.597656 253.363281 L 395.597656 287.664062 L 409.703125 287.664062 L 409.703125 253.363281 C 409.703125 253.28125 409.691406 253.199219 409.691406 253.117188 C 409.824219 241.421875 419.371094 231.941406 431.101562 231.941406 C 442.707031 231.941406 452.167969 241.230469 452.492188 252.761719 Z M 466.574219 252.761719 "/>
<path fill-rule="nonzero" fill="rgb(100%, 100%, 100%)" fill-opacity="1" d="M 880.121094 252.628906 C 880.121094 247.394531 879.15625 242.550781 877.230469 238.09375 C 875.296875 233.636719 872.632812 229.78125 869.238281 226.519531 C 865.835938 223.257812 861.816406 220.710938 857.179688 218.871094 C 852.539062 217.035156 847.554688 216.117188 842.230469 216.117188 C 836.902344 216.117188 831.914062 217.035156 827.277344 218.871094 C 822.636719 220.710938 818.617188 223.257812 815.222656 226.519531 C 811.820312 229.78125 809.15625 233.636719 807.230469 238.09375 C 805.300781 242.550781 804.335938 247.394531 804.335938 252.628906 C 804.335938 257.777344 805.300781 262.574219 807.230469 267.03125 C 809.15625 271.488281 811.820312 275.34375 815.222656 278.605469 C 818.617188 281.867188 822.636719 284.4375 827.277344 286.320312 C 831.914062 288.203125 836.902344 289.144531 842.230469 289.144531 C 847.554688 289.144531 852.539062 288.203125 857.179688 286.320312 C 861.816406 284.4375 865.835938 281.867188 869.238281 278.605469 C 872.632812 275.34375 875.296875 271.488281 877.230469 267.03125 C 879.15625 262.574219 880.121094 257.777344 880.121094 252.628906 M 865.738281 252.636719 C 865.738281 256.15625 865.160156 259.394531 864.003906 262.355469 C 862.847656 265.320312 861.242188 267.933594 859.183594 270.195312 C 857.125 272.453125 854.636719 274.214844 851.722656 275.46875 C 848.808594 276.726562 845.640625 277.351562 842.230469 277.351562 C 838.710938 277.351562 835.523438 276.726562 832.660156 275.46875 C 829.796875 274.214844 827.332031 272.453125 825.273438 270.195312 C 823.214844 267.933594 821.605469 265.320312 820.453125 262.355469 C 819.296875 259.394531 818.71875 256.15625 818.71875 252.636719 C 818.71875 249.121094 819.296875 245.832031 820.453125 242.765625 C 821.605469 239.703125 823.214844 237.066406 825.273438 234.855469 C 827.332031 232.644531 829.796875 230.910156 832.660156 229.65625 C 835.523438 228.398438 838.710938 227.769531 842.230469 227.769531 C 845.640625 227.769531 848.808594 228.398438 851.722656 229.65625 C 854.636719 230.910156 857.125 232.644531 859.183594 234.855469 C 861.242188 237.066406 862.847656 239.703125 864.003906 242.765625 C 865.160156 245.832031 865.738281 249.121094 865.738281 252.636719 "/>
<path fill-rule="nonzero" fill="rgb(100%, 100%, 100%)" fill-opacity="1" d="M 466.574219 216.148438 L 466.574219 229.128906 C 478.976562 229.796875 488.828125 240.0625 488.828125 252.628906 C 488.828125 265.628906 478.292969 276.167969 465.292969 276.167969 C 452.335938 276.167969 441.828125 265.699219 441.757812 252.761719 L 428.78125 252.761719 C 428.851562 272.867188 445.171875 289.144531 465.292969 289.144531 C 485.457031 289.144531 501.808594 272.796875 501.808594 252.628906 C 501.808594 232.894531 486.144531 216.824219 466.574219 216.148438 "/>
</svg>
